<svg xmlns="http://www.w3.org/2000/svg" viewBox="0 0 128 128"><defs><linearGradient id="g" x1="0" y1="0" x2="1" y2="1"><stop stop-color="#0b83d7"/><stop offset="1" stop-color="#06436e"/></linearGradient></defs><rect width="128" height="128" rx="30" fill="url(#g)"/><circle cx="83" cy="43" r="22" fill="#ffd85b"/><path d="M31 77c0-13 10-23 23-23 4-11 14-18 26-18 15 0 27 10 30 24 10 1 18 9 18 19 0 11-9 20-20 20H48c-10 0-17-10-17-22Z" fill="#fff" opacity=".94"/><path d="M48 91l-8 17m27-17-8 17m27-17-8 17" stroke="#269bd8" stroke-width="7" stroke-linecap="round"/><text x="16" y="25" font-family="Arial" font-size="13" font-weight="700" fill="#fff">ZW</text></svg>
